<svg width="39" height="39" viewBox="0 0 39 39" fill="none" xmlns="http://www.w3.org/2000/svg">
<path d="M39 19.5C39 30.2696 30.2696 39 19.5 39C8.73045 39 0 30.2696 0 19.5C0 8.73045 8.73045 0 19.5 0C30.2696 0 39 8.73045 39 19.5Z" fill="url(#paint0_linear_575_454)"/>
<path d="M27.391 25.298C28.483 25.298 29.302 24.713 29.575 24.011H31.993C31.33 26.156 29.848 27.365 27.313 27.365C24.232 27.365 22.165 25.298 22.165 22.1C22.165 18.98 24.388 16.796 27.313 16.796C30.472 16.796 32.383 19.37 32.188 22.763H24.934C24.973 24.362 25.753 25.298 27.391 25.298ZM16.393 27.092H9.685V13.286H16.198C18.811 13.286 20.644 14.066 20.644 16.679C20.644 18.239 19.903 19.019 18.772 19.565C20.332 19.994 21.268 21.164 21.268 23.075C21.268 25.883 19.006 27.092 16.393 27.092ZM16.003 24.752C17.329 24.752 18.226 24.284 18.226 22.919C18.226 21.515 17.407 20.93 16.042 20.93H12.727V24.752H16.003ZM27.235 18.863C25.909 18.863 25.012 19.721 24.934 21.008H29.419C29.263 19.682 28.6 18.863 27.235 18.863ZM15.808 18.863C16.9 18.863 17.68 18.356 17.68 17.225C17.68 16.016 16.783 15.626 15.574 15.626H12.727V18.863H15.808ZM30.004 14.183V15.548H24.388V14.183H30.004Z" fill="white"/>
<defs>
<linearGradient id="paint0_linear_575_454" x1="-6.88235" y1="-18.9265" x2="56.0347" y2="-8.82301" gradientUnits="userSpaceOnUse">
<stop stop-color="#1579D0"/>
<stop offset="1" stop-color="#55D73E"/>
</linearGradient>
</defs>
</svg>
