<svg width="38" height="41" viewBox="0 0 38 41" fill="none" xmlns="http://www.w3.org/2000/svg">
<path d="M38 20.5C38 31.8218 29.4934 41 19 41C8.50659 41 0 31.8218 0 20.5C0 9.17816 8.50659 0 19 0C29.4934 0 38 9.17816 38 20.5Z" fill="url(#paint0_linear_575_451)"/>
<path d="M19 7.15881C12.004 7.15881 6.33333 12.9866 6.33333 20.1747C6.33333 27.3627 12.004 33.1905 19 33.1905C25.996 33.1905 31.6667 27.3626 31.6667 20.1746C31.6667 12.9865 25.9959 7.15881 19 7.15881ZM27.3116 13.4584C28.6732 15.2352 29.5069 17.4543 29.5726 19.8695C26.7305 19.3579 24.2795 19.3424 22.1618 19.6873C21.8934 19.0544 21.6172 18.4394 21.3338 17.844C23.6051 16.8841 25.642 15.484 27.3116 13.4584ZM25.8541 11.9031C24.3627 13.7635 22.4903 15.0439 20.3719 15.9153C19.0157 13.3333 17.6209 11.1815 16.5062 9.6107C17.3066 9.40973 18.1402 9.30241 18.9992 9.30241C21.614 9.30152 24.0064 10.2834 25.8541 11.9031ZM14.4519 10.3599C15.5293 11.8379 16.963 13.979 18.3651 16.6042C15.3932 17.4429 12.069 17.6691 8.7044 17.6788C9.44695 14.4444 11.5955 11.7632 14.4519 10.3599ZM8.42012 20.1737L8.42882 19.8223H8.48578C12.2557 19.8223 15.9986 19.5685 19.3545 18.5524C19.6047 19.0755 19.8509 19.6124 20.0916 20.1648C15.6765 21.4949 12.9239 24.4803 11.0374 27.321C9.40974 25.4102 8.42012 22.9088 8.42012 20.1737ZM12.5795 28.8066C14.3655 26.0424 16.8545 23.3074 20.9047 22.1587C21.8507 24.6496 22.6226 27.3683 23.0311 30.2236C21.7882 30.754 20.4274 31.0469 19.0008 31.0469C16.5869 31.0469 14.3608 30.2114 12.5795 28.8066ZM24.9771 29.1401C24.544 26.5312 23.8347 24.0428 22.9804 21.7358C24.8314 21.4941 26.9593 21.5528 29.4261 22.0188C28.933 24.9652 27.2847 27.5107 24.9771 29.1401Z" fill="white"/>
<defs>
<linearGradient id="paint0_linear_575_451" x1="-6.70588" y1="-19.8971" x2="54.816" y2="-10.7405" gradientUnits="userSpaceOnUse">
<stop stop-color="#1579D0"/>
<stop offset="1" stop-color="#55D73E"/>
</linearGradient>
</defs>
</svg>
