<svg width="39" height="41" viewBox="0 0 39 41" fill="none" xmlns="http://www.w3.org/2000/svg">
<path d="M39 20.5C39 31.8218 30.2696 41 19.5 41C8.73045 41 0 31.8218 0 20.5C0 9.17816 8.73045 0 19.5 0C30.2696 0 39 9.17816 39 20.5Z" fill="url(#paint0_linear_575_453)"/>
<path d="M19.8086 8.62474C23.6662 8.62474 24.1234 8.63953 25.6468 8.70897C27.0554 8.77326 27.8205 9.00888 28.3297 9.2069C28.9573 9.43867 29.525 9.80867 29.9909 10.2889C30.4708 10.7557 30.8401 11.324 31.0716 11.9521C31.2693 12.462 31.5047 13.2277 31.5689 14.6382C31.6382 16.1635 31.653 16.621 31.653 20.4836C31.653 24.3462 31.6382 24.8036 31.5689 26.329C31.5047 27.7392 31.2693 28.5052 31.0716 29.015C30.5855 30.2764 29.5895 31.2736 28.3297 31.7603C27.8205 31.9583 27.0557 32.1939 25.6468 32.2582C24.1237 32.3283 23.6665 32.3431 19.8086 32.3431C15.9507 32.3431 15.4935 32.3283 13.9704 32.2585C12.5619 32.1943 11.7968 31.9586 11.2876 31.7606C10.6599 31.5288 10.0922 31.1588 9.62638 30.6786C9.14638 30.2118 8.77716 29.6435 8.54567 29.0154C8.3479 28.5055 8.11256 27.7398 8.04834 26.3293C7.97899 24.804 7.96423 24.3465 7.96423 20.4839C7.96423 16.6213 7.97867 16.1639 8.04802 14.6382C8.11224 13.228 8.34758 12.462 8.54535 11.9521C8.77684 11.3237 9.14638 10.7554 9.62638 10.2889C10.0926 9.80835 10.6602 9.43867 11.2876 9.2069C11.7968 9.00888 12.5615 8.77326 13.9704 8.70897C15.4938 8.63921 15.9507 8.62442 19.8086 8.62474ZM19.8086 6.01805C15.8849 6.01805 15.3927 6.03477 13.8519 6.10517C12.314 6.17557 11.2638 6.41987 10.3449 6.77766C9.38076 7.1409 8.50747 7.7102 7.78604 8.44601C7.0508 9.16865 6.48219 10.043 6.11907 11.008C5.76204 11.928 5.51804 12.9795 5.44804 14.5193C5.37741 16.0623 5.36071 16.5551 5.36071 20.4836C5.36071 24.4121 5.37741 24.9049 5.44804 26.4476C5.51836 27.9874 5.76237 29.0388 6.11971 29.9588C6.48251 30.9242 7.05112 31.7985 7.78604 32.5209C8.50779 33.2567 9.38108 33.826 10.3449 34.1892C11.2638 34.5467 12.314 34.7913 13.8519 34.8617C15.393 34.9324 15.8849 34.9491 19.8086 34.9491C23.7323 34.9491 24.2245 34.9324 25.7653 34.862C27.3032 34.7916 28.3534 34.5473 29.2723 34.1895C31.2128 33.438 32.7472 31.9021 33.4978 29.9588C33.8549 29.0388 34.0992 27.9874 34.1695 26.4476C34.2398 24.9049 34.2565 24.4121 34.2565 20.4836C34.2565 16.5551 34.2398 16.0623 34.1695 14.5196C34.0992 12.9798 33.8552 11.9284 33.4978 11.0083C33.135 10.043 32.5664 9.16865 31.8315 8.44634C31.1098 7.7102 30.2365 7.1409 29.2723 6.77766C28.3534 6.4202 27.3032 6.17589 25.7653 6.10581C24.2245 6.03477 23.7323 6.01805 19.8086 6.01805Z" fill="white"/>
<path d="M19.8086 13.0554C15.7112 13.0554 12.3895 16.3812 12.3895 20.4836C12.3895 24.586 15.7112 27.9118 19.8086 27.9118C23.906 27.9118 27.2278 24.586 27.2278 20.4836C27.2278 16.3812 23.906 13.0554 19.8086 13.0554ZM19.8086 25.3054C17.1489 25.3054 14.9926 23.1465 14.9926 20.4836C14.9926 17.8207 17.1489 15.6617 19.8086 15.6617C22.4683 15.6617 24.6246 17.8207 24.6246 20.4836C24.6246 23.1465 22.4683 25.3054 19.8086 25.3054Z" fill="white"/>
<path d="M27.5206 14.4981C28.4781 14.4981 29.2543 13.7209 29.2543 12.7622C29.2543 11.8035 28.4781 11.0263 27.5206 11.0263C26.5631 11.0263 25.7868 11.8035 25.7868 12.7622C25.7868 13.7209 26.5631 14.4981 27.5206 14.4981Z" fill="white"/>
<defs>
<linearGradient id="paint0_linear_575_453" x1="-6.88235" y1="-19.8971" x2="56.1856" y2="-10.2634" gradientUnits="userSpaceOnUse">
<stop stop-color="#1579D0"/>
<stop offset="1" stop-color="#55D73E"/>
</linearGradient>
</defs>
</svg>
