<svg width="39" height="41" viewBox="0 0 39 41" fill="none" xmlns="http://www.w3.org/2000/svg">
<path d="M39 20.5C39 31.8218 30.2696 41 19.5 41C8.73045 41 0 31.8218 0 20.5C0 9.17816 8.73045 0 19.5 0C30.2696 0 39 9.17816 39 20.5Z" fill="url(#paint0_linear_575_450)"/>
<path d="M8.30871 14.9793H13.1008V30.4117H8.30871V14.9793ZM10.7049 7.30803C12.2365 7.30803 13.4812 8.55425 13.4812 10.0903C13.4812 11.6248 12.2365 12.871 10.7049 12.871C9.16968 12.871 7.92857 11.6248 7.92857 10.0903C7.92857 8.55425 9.16968 7.30803 10.7049 7.30803Z" fill="white"/>
<path d="M16.1054 14.9793H20.7005V17.0896H20.766C21.4056 15.8757 22.9688 14.5971 25.2987 14.5971C30.1498 14.5971 31.0452 17.7924 31.0452 21.9477V30.4118H26.2567V22.9069C26.2567 21.1168 26.2256 18.8149 23.7673 18.8149C21.2743 18.8149 20.8939 20.766 20.8939 22.7783V30.4118H16.1054V14.9793Z" fill="white"/>
<defs>
<linearGradient id="paint0_linear_575_450" x1="-6.88235" y1="-19.8971" x2="56.1856" y2="-10.2634" gradientUnits="userSpaceOnUse">
<stop stop-color="#1579D0"/>
<stop offset="1" stop-color="#55D73E"/>
</linearGradient>
</defs>
</svg>
