<svg width="38" height="39" viewBox="0 0 38 39" fill="none" xmlns="http://www.w3.org/2000/svg">
<path d="M38 19.5C38 30.2696 29.4934 39 19 39C8.50659 39 0 30.2696 0 19.5C0 8.73045 8.50659 0 19 0C29.4934 0 38 8.73045 38 19.5Z" fill="url(#paint0_linear_575_452)"/>
<path fill-rule="evenodd" clip-rule="evenodd" d="M14.3007 29.8997C23.8602 29.8997 29.089 21.8964 29.089 14.9567C29.089 14.7289 29.089 14.5028 29.0738 14.2775C30.0909 13.5352 30.9687 12.6135 31.6667 11.5588C30.7192 11.9837 29.7122 12.2624 28.6824 12.3853C29.7667 11.7287 30.5786 10.6971 30.9675 9.47996C29.9465 10.0918 28.8306 10.5235 27.6665 10.7552C25.6981 8.64079 22.4061 8.53835 20.3123 10.5273C18.9633 11.8098 18.3895 13.7219 18.8087 15.5458C14.63 15.3333 10.7363 13.3393 8.09653 10.0589C6.71713 12.4587 7.42267 15.5276 9.70647 17.0686C8.87933 17.0443 8.06993 16.8192 7.34667 16.4122V16.4789C7.34793 18.9785 9.09213 21.1309 11.5165 21.6262C10.7515 21.8374 9.9484 21.868 9.17067 21.7157C9.85087 23.8557 11.8028 25.3215 14.0258 25.3637C12.1853 26.8254 9.91167 27.619 7.57087 27.6165C7.15793 27.6152 6.745 27.5908 6.33333 27.5409C8.71087 29.0819 11.476 29.8998 14.3007 29.8959" fill="white"/>
<defs>
<linearGradient id="paint0_linear_575_452" x1="-6.70588" y1="-18.9265" x2="54.676" y2="-9.32227" gradientUnits="userSpaceOnUse">
<stop stop-color="#1579D0"/>
<stop offset="1" stop-color="#55D73E"/>
</linearGradient>
</defs>
</svg>
